<?xml version="1.0" encoding="utf-8"?>
<!-- Generator: Adobe Illustrator 24.1.0, SVG Export Plug-In . SVG Version: 6.00 Build 0)  -->
<svg version="1.1" id="Layer_1" xmlns="http://www.w3.org/2000/svg" xmlns:xlink="http://www.w3.org/1999/xlink" x="0px" y="0px"
	 viewBox="0 0 139.06 27" style="enable-background: new 0 0 139.06 27;" xml:space="preserve">
<style type="text/css">
  .st0 { fill: #fff; }
</style>
<path class="st0" d="M13.1,9.88c-2.63-0.5-3.31-0.93-3.31-1.6V8.21c0-0.61,0.57-1,1.81-1c2.69,0.02,5.31,0.86,7.5,2.42l4.06-5.62
	c-2.88-2.28-6.45-3.42-11.25-3.42c-6.88,0-10.58,3.67-10.58,8.4v0.08c0,5.27,4.91,6.87,10.5,8c2.68,0.53,3.46,0.93,3.46,1.64v0.07
	c0,0.68-0.64,1.07-2.14,1.07c-3.15,0.02-6.22-1.01-8.72-2.92L0,22.25c3.17,2.78,7.73,4.2,12.78,4.2c6.7,0,11-3.21,11-8.44v-0.07
	C23.79,12.91,19.51,11.07,13.1,9.88z"/>
<polygon class="st0" points="24.75,8.1 32.09,8.1 32.09,25.98 40.42,25.98 40.42,8.1 47.76,8.1 47.76,1.05 24.75,1.05 "/>
<polygon class="st0" points="125.61,0 112.16,25.98 121.1,25.98 125.61,16.89 130.13,25.98 139.06,25.98 "/>
<path class="st0" d="M73.33,24.66l-4.91-7.16c3.05-1.29,5-4.31,4.92-7.62V9.8c0.11-2.2-0.7-4.34-2.24-5.91
	c-1.79-1.74-4.6-2.82-9-2.82H49.91v24.9h8.33v-7.12h1.78l4.7,7.12h16.86l4.52-9.08l4.52,9.08h8.94L86.1,0L73.33,24.66z M65.04,10.49
	c0,1.53-1.21,2.42-3.21,2.42h-3.59V8.07h3.63c1.92,0,3.17,0.78,3.17,2.38v0.08L65.04,10.49z"/>
<polygon class="st0" points="110.38,1.02 105.86,10.11 101.34,1.02 92.41,1.02 105.86,27 119.31,1.02 "/>
</svg>
